<svg width="93" height="28" viewBox="0 0 93 28" fill="none" xmlns="http://www.w3.org/2000/svg">
<g clip-path="url(#clip0_2287_6988)">
<path d="M20.5874 2.17948C19.2664 0.706982 16.8786 0.0756836 13.8238 0.0756836H4.958C4.65576 0.0756945 4.36344 0.181151 4.13359 0.373093C3.90374 0.565035 3.75144 0.830872 3.70407 1.12281L0.0125093 24.0204C-0.0608668 24.4719 0.296629 24.8808 0.764567 24.8808H6.23801L7.61263 16.3537L7.56997 16.6207C7.6679 16.018 8.19499 15.5734 8.81916 15.5734H11.4201C16.5297 15.5734 20.5306 13.5437 21.6993 7.67212C21.734 7.49847 21.7641 7.32945 21.7901 7.16432C21.6425 7.08792 21.6425 7.08792 21.7901 7.16432C22.1381 4.99413 21.7877 3.5169 20.5874 2.17948Z" fill="#27346A"/>
<path d="M9.70698 6.38254C9.85661 6.31286 10.0203 6.27675 10.186 6.27685H17.1366C17.9597 6.27685 18.7274 6.32923 19.4289 6.43966C19.6252 6.47027 19.8205 6.50682 20.0145 6.54925C20.2895 6.60858 20.5613 6.68121 20.8289 6.76685C21.1738 6.8795 21.4949 7.01069 21.7902 7.16432C22.1381 4.9933 21.7877 3.5169 20.5874 2.17948C19.2657 0.706982 16.8786 0.0756836 13.8238 0.0756836H4.95725C4.33298 0.0756836 3.8019 0.52016 3.70407 1.12281L0.0125099 24.0196C-0.0608663 24.4718 0.296629 24.8802 0.76381 24.8802H6.23801L9.08992 7.19288C9.11796 7.01902 9.18877 6.85444 9.29626 6.71328C9.40375 6.57213 9.5447 6.45862 9.70698 6.38254Z" fill="#27346A"/>
<path d="M21.6993 7.67211C20.5306 13.5428 16.5298 15.5734 11.4201 15.5734H8.81834C8.19417 15.5734 7.66698 16.018 7.57 16.6207L5.85988 27.2232C5.79598 27.6183 6.10845 27.9764 6.51723 27.9764H11.1312C11.3955 27.9763 11.6511 27.884 11.8521 27.7161C12.053 27.5482 12.1861 27.3157 12.2274 27.0603L12.2723 26.8304L13.1419 21.4403L13.198 21.1424C13.2393 20.8871 13.3723 20.6546 13.5733 20.4867C13.7742 20.3188 14.0298 20.2265 14.2941 20.2264H14.9846C19.4542 20.2264 22.954 18.4505 23.9767 13.3145C24.4036 11.1681 24.1827 9.37612 23.0534 8.11742C22.7109 7.73617 22.2855 7.42131 21.79 7.16431C21.7632 7.33027 21.7341 7.49845 21.6993 7.67211Z" fill="#2790C3"/>
<path d="M20.5675 6.68725C20.3853 6.63521 20.2013 6.58913 20.0159 6.5491C19.8218 6.50737 19.6266 6.47107 19.4304 6.44026C18.7281 6.32909 17.9609 6.27661 17.1371 6.27661H10.1873C10.0215 6.27625 9.85769 6.31267 9.7083 6.38314C9.54584 6.45899 9.40473 6.57242 9.29719 6.71362C9.18965 6.85482 9.11893 7.01952 9.09114 7.19347L7.61395 16.3536L7.57129 16.6206C7.66846 16.0178 8.19555 15.5733 8.81982 15.5733H11.4215C16.5311 15.5733 20.5319 13.5435 21.7007 7.67198C21.7354 7.49832 21.7646 7.33004 21.7915 7.16418C21.4955 7.01138 21.1752 6.87936 20.8302 6.76745C20.7431 6.73923 20.6556 6.71249 20.5676 6.68725" fill="#1F264F"/>
<path d="M55.5028 23.91L63.7116 10.8633C63.7765 10.7923 63.7765 10.7213 63.7765 10.625C63.7765 10.3866 63.584 10.133 63.3636 10.133C63.1433 10.133 60.8887 10.133 60.8887 10.133C60.7735 10.138 60.6611 10.1725 60.5603 10.2337C60.4596 10.2949 60.3734 10.3812 60.3088 10.4855L56.8945 15.9806L55.4773 10.6985C55.424 10.5379 55.3279 10.3983 55.2014 10.298C55.0748 10.1976 54.9237 10.1411 54.7675 10.1356H52.3575C52.1371 10.1356 51.9446 10.3892 51.9446 10.6275C51.9446 10.7974 54.4567 18.6305 54.677 19.376C54.3291 19.9111 52.0351 23.4054 52.0351 23.8288C52.0351 24.0824 52.2276 24.2802 52.448 24.2802H54.9229C55.0387 24.2719 55.1511 24.2346 55.2517 24.1713C55.3522 24.108 55.4381 24.0204 55.5028 23.9151V23.91Z" fill="#27346A"/>
<path fill-rule="evenodd" clip-rule="evenodd" d="M50.2838 10.1178H47.8344C47.345 10.1178 47.3195 10.8938 47.294 11.2741C46.5471 10.0773 45.4639 9.86424 44.2392 9.86424C41.0823 9.86424 38.6723 12.892 38.6723 16.2316C38.6723 18.9779 40.2449 20.7681 42.757 20.7681C43.9167 20.7681 45.3595 20.0784 46.1713 19.092C46.0964 19.3769 46.0527 19.6706 46.0414 19.9668C46.0414 20.2914 46.1713 20.5298 46.4543 20.5298H48.6718C49.0197 20.5298 49.3166 20.1215 49.3815 19.7259L50.6967 10.6681C50.7361 10.3993 50.5413 10.1178 50.2838 10.1178ZM44.0721 17.9357C45.6564 17.9357 46.9066 16.6272 46.9066 14.9079C46.9066 13.5285 46.0066 12.7246 44.8074 12.7246C43.2348 12.7246 42.0101 14.1041 42.0101 15.8234C42.0101 17.2028 42.8869 17.9357 44.0721 17.9357Z" fill="#27346A"/>
<path fill-rule="evenodd" clip-rule="evenodd" d="M39.4331 8.87782C39.4331 5.91855 37.3455 4.93213 34.9611 4.93213H29.8071C29.6406 4.93353 29.4803 5.00169 29.3568 5.12369C29.2332 5.24569 29.1549 5.41304 29.1367 5.59397L27.0236 19.977C26.9842 20.2585 27.179 20.5399 27.4365 20.5399H29.8859C30.2339 20.5399 30.5563 20.1317 30.5957 19.7361L31.1756 15.9882C31.3055 14.9739 32.8758 15.3263 33.4951 15.3263C37.1808 15.3263 39.4354 12.9326 39.4354 8.87528L39.4331 8.87782ZM32.667 8.07651H33.2724C34.7291 8.07651 35.8239 8.28698 35.527 10.1761C35.2696 11.9664 34.1747 12.1769 32.7575 12.1769L31.6998 12.22L32.2542 8.45688C32.2797 8.21851 32.4745 8.07651 32.667 8.07651Z" fill="#27346A"/>
<path fill-rule="evenodd" clip-rule="evenodd" d="M86.8786 10.1178H84.4291C83.9397 10.1178 83.9142 10.8938 83.8748 11.2742C83.165 10.0773 82.0702 9.86427 80.82 9.86427C77.6631 9.86427 75.2531 12.892 75.2531 16.2316C75.2531 18.9779 76.8257 20.7682 79.3378 20.7682C80.537 20.7682 81.9797 20.0784 82.7521 19.092C82.7127 19.3025 82.6222 19.7539 82.6222 19.9669C82.6222 20.2914 82.7521 20.5298 83.0351 20.5298H85.2642C85.6121 20.5298 85.909 20.1215 85.9739 19.726L87.2891 10.6681C87.3285 10.3993 87.136 10.1178 86.8786 10.1178ZM78.6048 15.8234C78.6048 14.0914 79.8295 12.7246 81.4022 12.7246C82.6014 12.7246 83.5036 13.5285 83.4897 14.908C83.4897 16.6399 82.2395 17.9357 80.6924 17.9357C79.5071 17.9357 78.6048 17.1902 78.6048 15.8234Z" fill="#2790C3"/>
<path d="M92.9998 5.42663C92.9998 5.14516 92.8073 4.93469 92.5869 4.93469H90.2024C90.0099 4.93469 89.8151 5.10459 89.7896 5.31506L87.702 19.9669L87.6649 20.0379C87.6649 20.2914 87.8574 20.5298 88.1149 20.5298H90.2419C90.5643 20.5298 90.8867 20.1215 90.9122 19.726L92.9998 5.46974V5.42663Z" fill="#2790C3"/>
<path fill-rule="evenodd" clip-rule="evenodd" d="M76.0301 8.87785C76.0301 5.91858 73.9426 4.93215 71.5581 4.93215H66.4412C66.2699 4.93065 66.1038 4.99675 65.9734 5.11832C65.843 5.23989 65.7571 5.40878 65.7314 5.594L63.6439 19.9643C63.6184 20.2458 63.8109 20.5273 64.0567 20.5273H66.6987C66.9562 20.5273 67.1487 20.3168 67.2136 20.0759L67.7935 15.9907C67.9234 14.9764 69.496 15.3289 70.113 15.3289C73.7732 15.3289 76.0301 12.9351 76.0301 8.87785ZM69.2896 8.07654H69.8695C70.9666 8.07654 72.1867 8.14754 72.2006 9.64112C72.2006 11.7534 71.0408 12.1769 69.3661 12.1769L68.3363 12.22L68.8767 8.4569C68.9022 8.21854 69.0576 8.07654 69.2896 8.07654Z" fill="#2790C3"/>
</g>
<defs>
<clipPath id="clip0_2287_6988">
<rect width="93" height="28" fill="white"/>
</clipPath>
</defs>
</svg>
