<svg width="65" height="26" viewBox="0 0 65 26" fill="none" xmlns="http://www.w3.org/2000/svg">
<g clip-path="url(#clip0_2287_6999)">
<path d="M46.0744 7.04044C47.8613 7.04044 49.2422 7.52781 50.2982 8.50256C51.354 9.47718 51.8413 10.7768 51.8413 12.4013V20.1987H49.567V18.412H49.4858C48.5112 19.8741 47.1303 20.6051 45.5058 20.6051C44.1249 20.6051 42.9066 20.1989 41.9319 19.3868C41.0384 18.5745 40.4698 17.4374 40.4698 16.219C40.4698 14.9194 40.9573 13.8634 41.9319 13.0512C42.9066 12.2389 44.2874 11.914 45.9119 11.914C47.3739 11.914 48.5112 12.1578 49.4045 12.7263V12.1578C49.4045 11.3996 49.1216 10.6416 48.5555 10.1476L48.4298 10.0459C47.78 9.4773 46.9678 9.15243 46.0744 9.15243C44.6936 9.15243 43.6377 9.72105 42.9066 10.8582L40.7948 9.5583C42.0943 7.85256 43.8001 7.04044 46.0744 7.04044ZM34.6217 1.51722C36.0792 1.51722 37.4642 2.02439 38.5716 2.9702L38.7642 3.14158C39.9013 4.11633 40.4698 5.57845 40.4698 7.12169C40.4698 8.66493 39.9013 10.0458 38.7642 11.1017C37.627 12.1577 36.2462 12.7262 34.6217 12.7262L30.723 12.6449V20.1989H28.2861V1.51709L34.6217 1.51722ZM46.3992 13.8634C45.4245 13.8634 44.6123 14.107 43.9626 14.5944C43.3127 15.0005 42.9878 15.569 42.9878 16.3C42.9878 16.9499 43.3128 17.5184 43.8001 17.8434C44.3687 18.2495 45.0184 18.4931 45.6683 18.4931C46.5779 18.4931 47.4877 18.1393 48.1992 17.4978L48.3487 17.356C49.1609 16.625 49.567 15.7315 49.567 14.7568C48.836 14.1883 47.78 13.8633 46.3993 13.8633L46.3992 13.8634ZM34.7842 3.79146H30.723V10.2896H34.7842C35.6776 10.2896 36.5711 9.96468 37.1397 9.31493C38.4392 8.09656 38.4392 6.06595 37.221 4.84745L37.1397 4.7662C36.4898 4.11646 35.6776 3.71033 34.7841 3.79158L34.7842 3.79146ZM64.9997 7.44656L56.9585 25.8846H54.5218L57.527 19.4679L52.2474 7.52781H54.8466L58.6641 16.7061H58.7454L62.4817 7.52781H64.9997V7.44656Z" fill="#5F6368"/>
<path d="M21.0575 11.0204C21.0575 10.2894 20.9763 9.55839 20.895 8.82739H10.7422V12.9699H16.509C16.2654 14.2694 15.5344 15.4877 14.3973 16.2189V18.8992H17.8899C19.9205 17.0311 21.0576 14.2694 21.0576 11.0205L21.0575 11.0204Z" fill="#4285F4"/>
<path d="M10.7417 21.4985C13.6657 21.4985 16.1024 20.5237 17.8894 18.8992L14.3968 16.2189C13.422 16.8686 12.2037 17.2747 10.7417 17.2747C7.97994 17.2747 5.5432 15.4066 4.73096 12.8074H1.15723V15.569C3.02534 19.2241 6.68045 21.4985 10.7417 21.4985Z" fill="#34A853"/>
<path d="M4.73126 12.8074C4.24401 11.5078 4.24401 10.0458 4.73126 8.66493V5.90332H1.15753C-0.385842 8.90868 -0.385842 12.4825 1.15753 15.569L4.73126 12.8074Z" fill="#FBBC04"/>
<path d="M10.7416 4.27887C12.2849 4.27887 13.7468 4.84749 14.8841 5.90336L17.9706 2.81688C16.0211 1.02989 13.422 -0.0259822 10.8227 0.0551409C6.7615 0.0551409 3.02527 2.32951 1.23828 5.98461L4.81214 8.74622C5.54313 6.14699 7.97987 4.27887 10.7416 4.27887Z" fill="#EA4335"/>
</g>
<defs>
<clipPath id="clip0_2287_6999">
<rect width="65" height="25.8984" fill="white" transform="translate(0 0.0507812)"/>
</clipPath>
</defs>
</svg>
